<svg xmlns="http://www.w3.org/2000/svg" xmlns:xlink="http://www.w3.org/1999/xlink" width="1080" zoomAndPan="magnify" viewBox="0 0 810 809.999993" height="1080" preserveAspectRatio="xMidYMid meet" version="1.0"><defs><clipPath id="33240ca96d"><path d="M 405 0 C 181.324219 0 0 181.324219 0 405 C 0 628.675781 181.324219 810 405 810 C 628.675781 810 810 628.675781 810 405 C 810 181.324219 628.675781 0 405 0 Z M 405 0 " clip-rule="nonzero"/></clipPath><linearGradient x1="0" gradientTransform="matrix(3.164062, 0, 0, 3.164062, 0.0000035, 0.00002)" y1="0" x2="255.999989" gradientUnits="userSpaceOnUse" y2="0" id="57c104a664"><stop stop-opacity="1" stop-color="rgb(80.39856%, 100%, 84.698486%)" offset="0"/><stop stop-opacity="1" stop-color="rgb(80.311584%, 99.891663%, 84.757996%)" offset="0.0078125"/><stop stop-opacity="1" stop-color="rgb(80.136108%, 99.676514%, 84.87854%)" offset="0.015625"/><stop stop-opacity="1" stop-color="rgb(79.960632%, 99.461365%, 84.997559%)" offset="0.0234375"/><stop stop-opacity="1" stop-color="rgb(79.786682%, 99.246216%, 85.116577%)" offset="0.03125"/><stop stop-opacity="1" stop-color="rgb(79.611206%, 99.032593%, 85.237122%)" offset="0.0390625"/><stop stop-opacity="1" stop-color="rgb(79.43573%, 98.817444%, 85.35614%)" offset="0.046875"/><stop stop-opacity="1" stop-color="rgb(79.26178%, 98.602295%, 85.476685%)" offset="0.0546875"/><stop stop-opacity="1" stop-color="rgb(79.086304%, 98.387146%, 85.595703%)" offset="0.0625"/><stop stop-opacity="1" stop-color="rgb(78.910828%, 98.171997%, 85.714722%)" offset="0.0703125"/><stop stop-opacity="1" stop-color="rgb(78.736877%, 97.958374%, 85.835266%)" offset="0.078125"/><stop stop-opacity="1" stop-color="rgb(78.561401%, 97.743225%, 85.954285%)" offset="0.0859375"/><stop stop-opacity="1" stop-color="rgb(78.385925%, 97.528076%, 86.073303%)" offset="0.09375"/><stop stop-opacity="1" stop-color="rgb(78.211975%, 97.312927%, 86.193848%)" offset="0.101562"/><stop stop-opacity="1" stop-color="rgb(78.036499%, 97.097778%, 86.312866%)" offset="0.109375"/><stop stop-opacity="1" stop-color="rgb(77.861023%, 96.884155%, 86.431885%)" offset="0.117188"/><stop stop-opacity="1" stop-color="rgb(77.685547%, 96.669006%, 86.552429%)" offset="0.125"/><stop stop-opacity="1" stop-color="rgb(77.511597%, 96.453857%, 86.671448%)" offset="0.132813"/><stop stop-opacity="1" stop-color="rgb(77.336121%, 96.238708%, 86.790466%)" offset="0.140625"/><stop stop-opacity="1" stop-color="rgb(77.160645%, 96.02356%, 86.911011%)" offset="0.148438"/><stop stop-opacity="1" stop-color="rgb(76.986694%, 95.809937%, 87.030029%)" offset="0.15625"/><stop stop-opacity="1" stop-color="rgb(76.811218%, 95.594788%, 87.149048%)" offset="0.164063"/><stop stop-opacity="1" stop-color="rgb(76.635742%, 95.379639%, 87.269592%)" offset="0.171875"/><stop stop-opacity="1" stop-color="rgb(76.461792%, 95.16449%, 87.388611%)" offset="0.179688"/><stop stop-opacity="1" stop-color="rgb(76.286316%, 94.949341%, 87.507629%)" offset="0.1875"/><stop stop-opacity="1" stop-color="rgb(76.11084%, 94.735718%, 87.628174%)" offset="0.195312"/><stop stop-opacity="1" stop-color="rgb(75.93689%, 94.520569%, 87.747192%)" offset="0.203125"/><stop stop-opacity="1" stop-color="rgb(75.761414%, 94.30542%, 87.866211%)" offset="0.210938"/><stop stop-opacity="1" stop-color="rgb(75.585938%, 94.090271%, 87.986755%)" offset="0.21875"/><stop stop-opacity="1" stop-color="rgb(75.410461%, 93.875122%, 88.105774%)" offset="0.226562"/><stop stop-opacity="1" stop-color="rgb(75.236511%, 93.661499%, 88.224792%)" offset="0.234375"/><stop stop-opacity="1" stop-color="rgb(75.061035%, 93.44635%, 88.345337%)" offset="0.242188"/><stop stop-opacity="1" stop-color="rgb(74.885559%, 93.231201%, 88.464355%)" offset="0.25"/><stop stop-opacity="1" stop-color="rgb(74.711609%, 93.016052%, 88.583374%)" offset="0.257813"/><stop stop-opacity="1" stop-color="rgb(74.536133%, 92.800903%, 88.703918%)" offset="0.265625"/><stop stop-opacity="1" stop-color="rgb(74.360657%, 92.58728%, 88.822937%)" offset="0.273438"/><stop stop-opacity="1" stop-color="rgb(74.186707%, 92.372131%, 88.941956%)" offset="0.28125"/><stop stop-opacity="1" stop-color="rgb(74.01123%, 92.156982%, 89.0625%)" offset="0.289063"/><stop stop-opacity="1" stop-color="rgb(73.835754%, 91.941833%, 89.181519%)" offset="0.296875"/><stop stop-opacity="1" stop-color="rgb(73.661804%, 91.726685%, 89.300537%)" offset="0.304688"/><stop stop-opacity="1" stop-color="rgb(73.486328%, 91.513062%, 89.421082%)" offset="0.3125"/><stop stop-opacity="1" stop-color="rgb(73.310852%, 91.297913%, 89.5401%)" offset="0.320313"/><stop stop-opacity="1" stop-color="rgb(73.136902%, 91.082764%, 89.659119%)" offset="0.328125"/><stop stop-opacity="1" stop-color="rgb(72.961426%, 90.867615%, 89.779663%)" offset="0.335938"/><stop stop-opacity="1" stop-color="rgb(72.78595%, 90.652466%, 89.898682%)" offset="0.34375"/><stop stop-opacity="1" stop-color="rgb(72.610474%, 90.438843%, 90.0177%)" offset="0.351563"/><stop stop-opacity="1" stop-color="rgb(72.436523%, 90.223694%, 90.138245%)" offset="0.359375"/><stop stop-opacity="1" stop-color="rgb(72.261047%, 90.008545%, 90.257263%)" offset="0.367188"/><stop stop-opacity="1" stop-color="rgb(72.085571%, 89.793396%, 90.376282%)" offset="0.375"/><stop stop-opacity="1" stop-color="rgb(71.911621%, 89.578247%, 90.496826%)" offset="0.382812"/><stop stop-opacity="1" stop-color="rgb(71.736145%, 89.364624%, 90.615845%)" offset="0.390625"/><stop stop-opacity="1" stop-color="rgb(71.560669%, 89.149475%, 90.734863%)" offset="0.398438"/><stop stop-opacity="1" stop-color="rgb(71.386719%, 88.934326%, 90.855408%)" offset="0.40625"/><stop stop-opacity="1" stop-color="rgb(71.211243%, 88.719177%, 90.974426%)" offset="0.414062"/><stop stop-opacity="1" stop-color="rgb(71.035767%, 88.504028%, 91.093445%)" offset="0.421875"/><stop stop-opacity="1" stop-color="rgb(70.861816%, 88.290405%, 91.213989%)" offset="0.429688"/><stop stop-opacity="1" stop-color="rgb(70.68634%, 88.075256%, 91.333008%)" offset="0.4375"/><stop stop-opacity="1" stop-color="rgb(70.510864%, 87.860107%, 91.452026%)" offset="0.445312"/><stop stop-opacity="1" stop-color="rgb(70.336914%, 87.644958%, 91.572571%)" offset="0.453125"/><stop stop-opacity="1" stop-color="rgb(70.161438%, 87.42981%, 91.691589%)" offset="0.460938"/><stop stop-opacity="1" stop-color="rgb(69.985962%, 87.216187%, 91.810608%)" offset="0.46875"/><stop stop-opacity="1" stop-color="rgb(69.810486%, 87.001038%, 91.931152%)" offset="0.476562"/><stop stop-opacity="1" stop-color="rgb(69.636536%, 86.785889%, 92.050171%)" offset="0.484375"/><stop stop-opacity="1" stop-color="rgb(69.46106%, 86.57074%, 92.169189%)" offset="0.492188"/><stop stop-opacity="1" stop-color="rgb(69.285583%, 86.355591%, 92.289734%)" offset="0.5"/><stop stop-opacity="1" stop-color="rgb(69.111633%, 86.141968%, 92.408752%)" offset="0.507812"/><stop stop-opacity="1" stop-color="rgb(68.936157%, 85.926819%, 92.527771%)" offset="0.515625"/><stop stop-opacity="1" stop-color="rgb(68.760681%, 85.71167%, 92.648315%)" offset="0.523438"/><stop stop-opacity="1" stop-color="rgb(68.586731%, 85.496521%, 92.767334%)" offset="0.53125"/><stop stop-opacity="1" stop-color="rgb(68.411255%, 85.281372%, 92.886353%)" offset="0.539063"/><stop stop-opacity="1" stop-color="rgb(68.235779%, 85.067749%, 93.006897%)" offset="0.546875"/><stop stop-opacity="1" stop-color="rgb(68.061829%, 84.8526%, 93.125916%)" offset="0.554688"/><stop stop-opacity="1" stop-color="rgb(67.886353%, 84.637451%, 93.244934%)" offset="0.5625"/><stop stop-opacity="1" stop-color="rgb(67.710876%, 84.422302%, 93.365479%)" offset="0.570313"/><stop stop-opacity="1" stop-color="rgb(67.536926%, 84.207153%, 93.484497%)" offset="0.578125"/><stop stop-opacity="1" stop-color="rgb(67.36145%, 83.99353%, 93.603516%)" offset="0.585938"/><stop stop-opacity="1" stop-color="rgb(67.185974%, 83.778381%, 93.72406%)" offset="0.59375"/><stop stop-opacity="1" stop-color="rgb(67.010498%, 83.563232%, 93.843079%)" offset="0.601563"/><stop stop-opacity="1" stop-color="rgb(66.836548%, 83.348083%, 93.962097%)" offset="0.609375"/><stop stop-opacity="1" stop-color="rgb(66.661072%, 83.132935%, 94.082642%)" offset="0.617188"/><stop stop-opacity="1" stop-color="rgb(66.485596%, 82.919312%, 94.20166%)" offset="0.625"/><stop stop-opacity="1" stop-color="rgb(66.311646%, 82.704163%, 94.320679%)" offset="0.632813"/><stop stop-opacity="1" stop-color="rgb(66.136169%, 82.489014%, 94.441223%)" offset="0.640625"/><stop stop-opacity="1" stop-color="rgb(65.960693%, 82.273865%, 94.560242%)" offset="0.648438"/><stop stop-opacity="1" stop-color="rgb(65.786743%, 82.058716%, 94.67926%)" offset="0.65625"/><stop stop-opacity="1" stop-color="rgb(65.611267%, 81.845093%, 94.799805%)" offset="0.664063"/><stop stop-opacity="1" stop-color="rgb(65.435791%, 81.629944%, 94.918823%)" offset="0.671875"/><stop stop-opacity="1" stop-color="rgb(65.261841%, 81.414795%, 95.037842%)" offset="0.679688"/><stop stop-opacity="1" stop-color="rgb(65.086365%, 81.199646%, 95.158386%)" offset="0.6875"/><stop stop-opacity="1" stop-color="rgb(64.910889%, 80.984497%, 95.277405%)" offset="0.695313"/><stop stop-opacity="1" stop-color="rgb(64.736938%, 80.770874%, 95.396423%)" offset="0.703125"/><stop stop-opacity="1" stop-color="rgb(64.561462%, 80.555725%, 95.516968%)" offset="0.710938"/><stop stop-opacity="1" stop-color="rgb(64.385986%, 80.340576%, 95.635986%)" offset="0.71875"/><stop stop-opacity="1" stop-color="rgb(64.21051%, 80.125427%, 95.755005%)" offset="0.726563"/><stop stop-opacity="1" stop-color="rgb(64.03656%, 79.910278%, 95.875549%)" offset="0.734375"/><stop stop-opacity="1" stop-color="rgb(63.861084%, 79.696655%, 95.994568%)" offset="0.742188"/><stop stop-opacity="1" stop-color="rgb(63.685608%, 79.481506%, 96.113586%)" offset="0.75"/><stop stop-opacity="1" stop-color="rgb(63.511658%, 79.266357%, 96.234131%)" offset="0.757812"/><stop stop-opacity="1" stop-color="rgb(63.336182%, 79.051208%, 96.353149%)" offset="0.765625"/><stop stop-opacity="1" stop-color="rgb(63.160706%, 78.83606%, 96.472168%)" offset="0.773438"/><stop stop-opacity="1" stop-color="rgb(62.986755%, 78.622437%, 96.592712%)" offset="0.78125"/><stop stop-opacity="1" stop-color="rgb(62.811279%, 78.407288%, 96.711731%)" offset="0.789062"/><stop stop-opacity="1" stop-color="rgb(62.635803%, 78.192139%, 96.83075%)" offset="0.796875"/><stop stop-opacity="1" stop-color="rgb(62.461853%, 77.97699%, 96.951294%)" offset="0.804688"/><stop stop-opacity="1" stop-color="rgb(62.286377%, 77.761841%, 97.070312%)" offset="0.8125"/><stop stop-opacity="1" stop-color="rgb(62.110901%, 77.548218%, 97.189331%)" offset="0.820312"/><stop stop-opacity="1" stop-color="rgb(61.936951%, 77.333069%, 97.309875%)" offset="0.828125"/><stop stop-opacity="1" stop-color="rgb(61.761475%, 77.11792%, 97.428894%)" offset="0.835938"/><stop stop-opacity="1" stop-color="rgb(61.585999%, 76.902771%, 97.547913%)" offset="0.84375"/><stop stop-opacity="1" stop-color="rgb(61.410522%, 76.687622%, 97.668457%)" offset="0.851562"/><stop stop-opacity="1" stop-color="rgb(61.236572%, 76.473999%, 97.787476%)" offset="0.859375"/><stop stop-opacity="1" stop-color="rgb(61.061096%, 76.25885%, 97.906494%)" offset="0.867188"/><stop stop-opacity="1" stop-color="rgb(60.88562%, 76.043701%, 98.027039%)" offset="0.875"/><stop stop-opacity="1" stop-color="rgb(60.71167%, 75.828552%, 98.146057%)" offset="0.882812"/><stop stop-opacity="1" stop-color="rgb(60.536194%, 75.613403%, 98.265076%)" offset="0.890625"/><stop stop-opacity="1" stop-color="rgb(60.360718%, 75.39978%, 98.38562%)" offset="0.898438"/><stop stop-opacity="1" stop-color="rgb(60.186768%, 75.184631%, 98.504639%)" offset="0.90625"/><stop stop-opacity="1" stop-color="rgb(60.011292%, 74.969482%, 98.623657%)" offset="0.914062"/><stop stop-opacity="1" stop-color="rgb(59.835815%, 74.754333%, 98.744202%)" offset="0.921875"/><stop stop-opacity="1" stop-color="rgb(59.661865%, 74.539185%, 98.86322%)" offset="0.929688"/><stop stop-opacity="1" stop-color="rgb(59.486389%, 74.325562%, 98.982239%)" offset="0.9375"/><stop stop-opacity="1" stop-color="rgb(59.310913%, 74.110413%, 99.102783%)" offset="0.945312"/><stop stop-opacity="1" stop-color="rgb(59.136963%, 73.895264%, 99.221802%)" offset="0.953125"/><stop stop-opacity="1" stop-color="rgb(58.961487%, 73.680115%, 99.34082%)" offset="0.960938"/><stop stop-opacity="1" stop-color="rgb(58.786011%, 73.464966%, 99.461365%)" offset="0.96875"/><stop stop-opacity="1" stop-color="rgb(58.610535%, 73.251343%, 99.580383%)" offset="0.976562"/><stop stop-opacity="1" stop-color="rgb(58.436584%, 73.036194%, 99.699402%)" offset="0.984375"/><stop stop-opacity="1" stop-color="rgb(58.261108%, 72.821045%, 99.819946%)" offset="0.992188"/><stop stop-opacity="1" stop-color="rgb(58.085632%, 72.605896%, 99.938965%)" offset="1"/></linearGradient><clipPath id="659d448e8b"><path d="M 136.402344 161.148438 L 673.640625 161.148438 L 673.640625 648.851562 L 136.402344 648.851562 Z M 136.402344 161.148438 " clip-rule="nonzero"/></clipPath><clipPath id="56a69e78d9"><path d="M 211.402344 161.148438 L 598.597656 161.148438 C 640.019531 161.148438 673.597656 194.726562 673.597656 236.148438 L 673.597656 573.851562 C 673.597656 615.273438 640.019531 648.851562 598.597656 648.851562 L 211.402344 648.851562 C 169.980469 648.851562 136.402344 615.273438 136.402344 573.851562 L 136.402344 236.148438 C 136.402344 194.726562 169.980469 161.148438 211.402344 161.148438 Z M 211.402344 161.148438 " clip-rule="nonzero"/></clipPath><clipPath id="f06eccaa5c"><path d="M 136.402344 161.148438 L 673.402344 161.148438 L 673.402344 648.648438 L 136.402344 648.648438 Z M 136.402344 161.148438 " clip-rule="nonzero"/></clipPath><clipPath id="ca5be09c82"><path d="M 211.402344 161.148438 L 598.589844 161.148438 C 640.011719 161.148438 673.589844 194.726562 673.589844 236.148438 L 673.589844 573.847656 C 673.589844 615.269531 640.011719 648.847656 598.589844 648.847656 L 211.402344 648.847656 C 169.980469 648.847656 136.402344 615.269531 136.402344 573.847656 L 136.402344 236.148438 C 136.402344 194.726562 169.980469 161.148438 211.402344 161.148438 Z M 211.402344 161.148438 " clip-rule="nonzero"/></clipPath><clipPath id="07bc163997"><path d="M 379.320312 114.148438 L 430.679688 114.148438 L 430.679688 240 L 379.320312 240 Z M 379.320312 114.148438 " clip-rule="nonzero"/></clipPath><clipPath id="088c9bc65e"><path d="M 405 114.148438 C 411.8125 114.148438 418.34375 116.855469 423.15625 121.671875 C 427.972656 126.484375 430.679688 133.015625 430.679688 139.828125 L 430.679688 214.304688 C 430.679688 221.113281 427.972656 227.644531 423.15625 232.460938 C 418.34375 237.277344 411.8125 239.984375 405 239.984375 C 398.1875 239.984375 391.65625 237.277344 386.839844 232.460938 C 382.027344 227.644531 379.320312 221.113281 379.320312 214.304688 L 379.320312 139.828125 C 379.320312 133.015625 382.027344 126.484375 386.839844 121.671875 C 391.65625 116.855469 398.1875 114.148438 405 114.148438 Z M 405 114.148438 " clip-rule="nonzero"/></clipPath><clipPath id="168202e5f0"><path d="M 279.230469 114.148438 L 330.589844 114.148438 L 330.589844 240 L 279.230469 240 Z M 279.230469 114.148438 " clip-rule="nonzero"/></clipPath><clipPath id="d5e90b1266"><path d="M 304.910156 114.148438 C 311.722656 114.148438 318.253906 116.855469 323.070312 121.671875 C 327.886719 126.484375 330.589844 133.015625 330.589844 139.828125 L 330.589844 214.304688 C 330.589844 221.113281 327.886719 227.644531 323.070312 232.460938 C 318.253906 237.277344 311.722656 239.984375 304.910156 239.984375 C 298.101562 239.984375 291.570312 237.277344 286.753906 232.460938 C 281.9375 227.644531 279.230469 221.113281 279.230469 214.304688 L 279.230469 139.828125 C 279.230469 133.015625 281.9375 126.484375 286.753906 121.671875 C 291.570312 116.855469 298.101562 114.148438 304.910156 114.148438 Z M 304.910156 114.148438 " clip-rule="nonzero"/></clipPath><clipPath id="288cfe2791"><path d="M 479.429688 114.148438 L 530.789062 114.148438 L 530.789062 240 L 479.429688 240 Z M 479.429688 114.148438 " clip-rule="nonzero"/></clipPath><clipPath id="07fa9f070b"><path d="M 505.109375 114.148438 C 511.917969 114.148438 518.453125 116.855469 523.265625 121.671875 C 528.082031 126.484375 530.789062 133.015625 530.789062 139.828125 L 530.789062 214.304688 C 530.789062 221.113281 528.082031 227.644531 523.265625 232.460938 C 518.453125 237.277344 511.917969 239.984375 505.109375 239.984375 C 498.296875 239.984375 491.765625 237.277344 486.949219 232.460938 C 482.136719 227.644531 479.429688 221.113281 479.429688 214.304688 L 479.429688 139.828125 C 479.429688 133.015625 482.136719 126.484375 486.949219 121.671875 C 491.765625 116.855469 498.296875 114.148438 505.109375 114.148438 Z M 505.109375 114.148438 " clip-rule="nonzero"/></clipPath><clipPath id="404a4e4cd8"><path d="M 320 398 L 431 398 L 431 501 L 320 501 Z M 320 398 " clip-rule="nonzero"/></clipPath><clipPath id="4f1421da70"><path d="M 310.222656 427.191406 L 343.566406 388.128906 L 441.375 471.621094 L 408.03125 510.683594 Z M 310.222656 427.191406 " clip-rule="nonzero"/></clipPath><clipPath id="b26ca2096e"><path d="M 326.894531 407.660156 C 331.316406 402.480469 337.613281 399.269531 344.40625 398.734375 C 351.195312 398.195312 357.917969 400.378906 363.097656 404.800781 L 421.820312 454.925781 C 427 459.347656 430.210938 465.648438 430.746094 472.4375 C 431.285156 479.226562 429.101562 485.949219 424.679688 491.128906 C 420.257812 496.3125 413.960938 499.523438 407.167969 500.058594 C 400.378906 500.59375 393.65625 498.410156 388.476562 493.988281 L 329.753906 443.863281 C 324.574219 439.441406 321.363281 433.144531 320.828125 426.355469 C 320.289062 419.566406 322.472656 412.839844 326.894531 407.660156 Z M 326.894531 407.660156 " clip-rule="nonzero"/></clipPath><clipPath id="82347516fb"><path d="M 379 359 L 539 359 L 539 501 L 379 501 Z M 379 359 " clip-rule="nonzero"/></clipPath><clipPath id="392c62d974"><path d="M 516.101562 348.835938 L 548.984375 388.289062 L 402.113281 510.699219 L 369.230469 471.246094 Z M 516.101562 348.835938 " clip-rule="nonzero"/></clipPath><clipPath id="615671963c"><path d="M 532.542969 368.5625 C 536.902344 373.792969 539.007812 380.542969 538.390625 387.324219 C 537.773438 394.109375 534.488281 400.367188 529.257812 404.730469 L 421.875 494.226562 C 416.640625 498.589844 409.894531 500.691406 403.109375 500.074219 C 396.328125 499.460938 390.066406 496.175781 385.707031 490.941406 C 381.347656 485.710938 379.242188 478.960938 379.859375 472.179688 C 380.476562 465.394531 383.761719 459.136719 388.992188 454.773438 L 496.375 365.277344 C 501.605469 360.917969 508.355469 358.8125 515.136719 359.429688 C 521.921875 360.042969 528.179688 363.332031 532.542969 368.5625 Z M 532.542969 368.5625 " clip-rule="nonzero"/></clipPath><clipPath id="a522a23b02"><path d="M 136.320312 266.347656 L 673.597656 266.347656 L 673.597656 302.152344 L 136.320312 302.152344 Z M 136.320312 266.347656 " clip-rule="nonzero"/></clipPath></defs><g clip-path="url(#33240ca96d)"><rect x="-81" fill="url(#57c104a664)" width="972" y="-80.999999" height="971.999992"/></g><g clip-path="url(#659d448e8b)"><g clip-path="url(#56a69e78d9)"><path fill="#ffffff" d="M 136.402344 161.148438 L 673.640625 161.148438 L 673.640625 648.851562 L 136.402344 648.851562 Z M 136.402344 161.148438 " fill-opacity="1" fill-rule="nonzero"/></g></g><g clip-path="url(#f06eccaa5c)"><g clip-path="url(#ca5be09c82)"><path stroke-linecap="butt" transform="matrix(0.75, 0, 0, 0.75, 136.403025, 161.149188)" fill="none" stroke-linejoin="miter" d="M 99.999104 -0.00100052 L 616.249163 -0.00100052 C 671.478336 -0.00100052 716.249174 44.769838 716.249174 99.999011 L 716.249174 550.264687 C 716.249174 605.49386 671.478336 650.264699 616.249163 650.264699 L 99.999104 650.264699 C 44.769931 650.264699 -0.00090785 605.49386 -0.00090785 550.264687 L -0.00090785 99.999011 C -0.00090785 44.769838 44.769931 -0.00100052 99.999104 -0.00100052 Z M 99.999104 -0.00100052 " stroke="#000000" stroke-width="96" stroke-opacity="1" stroke-miterlimit="4"/></g></g><g clip-path="url(#07bc163997)"><g clip-path="url(#088c9bc65e)"><path fill="#000000" d="M 379.320312 114.148438 L 430.679688 114.148438 L 430.679688 239.9375 L 379.320312 239.9375 Z M 379.320312 114.148438 " fill-opacity="1" fill-rule="nonzero"/></g></g><g clip-path="url(#168202e5f0)"><g clip-path="url(#d5e90b1266)"><path fill="#000000" d="M 279.230469 114.148438 L 330.589844 114.148438 L 330.589844 239.9375 L 279.230469 239.9375 Z M 279.230469 114.148438 " fill-opacity="1" fill-rule="nonzero"/></g></g><g clip-path="url(#288cfe2791)"><g clip-path="url(#07fa9f070b)"><path fill="#000000" d="M 479.429688 114.148438 L 530.789062 114.148438 L 530.789062 239.9375 L 479.429688 239.9375 Z M 479.429688 114.148438 " fill-opacity="1" fill-rule="nonzero"/></g></g><g clip-path="url(#404a4e4cd8)"><g clip-path="url(#4f1421da70)"><g clip-path="url(#b26ca2096e)"><path fill="#545454" d="M 310.222656 427.191406 L 343.566406 388.128906 L 441.375 471.621094 L 408.03125 510.683594 Z M 310.222656 427.191406 " fill-opacity="1" fill-rule="nonzero"/></g></g></g><g clip-path="url(#82347516fb)"><g clip-path="url(#392c62d974)"><g clip-path="url(#615671963c)"><path fill="#000000" d="M 516.101562 348.835938 L 548.984375 388.289062 L 402.113281 510.699219 L 369.230469 471.246094 Z M 516.101562 348.835938 " fill-opacity="1" fill-rule="nonzero"/></g></g></g><g clip-path="url(#a522a23b02)"><path fill="#000000" d="M 136.320312 266.347656 L 673.550781 266.347656 L 673.550781 302.152344 L 136.320312 302.152344 Z M 136.320312 266.347656 " fill-opacity="1" fill-rule="nonzero"/></g></svg>