<svg xmlns="http://www.w3.org/2000/svg" xmlns:xlink="http://www.w3.org/1999/xlink" width="1080" zoomAndPan="magnify" viewBox="0 0 810 809.999993" height="1080" preserveAspectRatio="xMidYMid meet" version="1.0"><defs><clipPath id="93042a2802"><path d="M 405 0 C 181.324219 0 0 181.324219 0 405 C 0 628.675781 181.324219 810 405 810 C 628.675781 810 810 628.675781 810 405 C 810 181.324219 628.675781 0 405 0 Z M 405 0 " clip-rule="nonzero"/></clipPath><clipPath id="ffa399d964"><path d="M 136.402344 161.148438 L 673.640625 161.148438 L 673.640625 648.851562 L 136.402344 648.851562 Z M 136.402344 161.148438 " clip-rule="nonzero"/></clipPath><clipPath id="09395a0077"><path d="M 211.402344 161.148438 L 598.597656 161.148438 C 640.019531 161.148438 673.597656 194.726562 673.597656 236.148438 L 673.597656 573.851562 C 673.597656 615.273438 640.019531 648.851562 598.597656 648.851562 L 211.402344 648.851562 C 169.980469 648.851562 136.402344 615.273438 136.402344 573.851562 L 136.402344 236.148438 C 136.402344 194.726562 169.980469 161.148438 211.402344 161.148438 Z M 211.402344 161.148438 " clip-rule="nonzero"/></clipPath><clipPath id="4928d68fd5"><path d="M 136.402344 161.148438 L 673.402344 161.148438 L 673.402344 648.648438 L 136.402344 648.648438 Z M 136.402344 161.148438 " clip-rule="nonzero"/></clipPath><clipPath id="2407e09b32"><path d="M 211.402344 161.148438 L 598.589844 161.148438 C 640.011719 161.148438 673.589844 194.726562 673.589844 236.148438 L 673.589844 573.847656 C 673.589844 615.269531 640.011719 648.847656 598.589844 648.847656 L 211.402344 648.847656 C 169.980469 648.847656 136.402344 615.269531 136.402344 573.847656 L 136.402344 236.148438 C 136.402344 194.726562 169.980469 161.148438 211.402344 161.148438 Z M 211.402344 161.148438 " clip-rule="nonzero"/></clipPath><clipPath id="9b08239b30"><path d="M 379.320312 114.148438 L 430.679688 114.148438 L 430.679688 240 L 379.320312 240 Z M 379.320312 114.148438 " clip-rule="nonzero"/></clipPath><clipPath id="1cf6c8f049"><path d="M 405 114.148438 C 411.8125 114.148438 418.34375 116.855469 423.15625 121.671875 C 427.972656 126.484375 430.679688 133.015625 430.679688 139.828125 L 430.679688 214.304688 C 430.679688 221.113281 427.972656 227.644531 423.15625 232.460938 C 418.34375 237.277344 411.8125 239.984375 405 239.984375 C 398.1875 239.984375 391.65625 237.277344 386.839844 232.460938 C 382.027344 227.644531 379.320312 221.113281 379.320312 214.304688 L 379.320312 139.828125 C 379.320312 133.015625 382.027344 126.484375 386.839844 121.671875 C 391.65625 116.855469 398.1875 114.148438 405 114.148438 Z M 405 114.148438 " clip-rule="nonzero"/></clipPath><clipPath id="fb9664fc1d"><path d="M 279.230469 114.148438 L 330.589844 114.148438 L 330.589844 240 L 279.230469 240 Z M 279.230469 114.148438 " clip-rule="nonzero"/></clipPath><clipPath id="e39998ce39"><path d="M 304.910156 114.148438 C 311.722656 114.148438 318.253906 116.855469 323.070312 121.671875 C 327.886719 126.484375 330.589844 133.015625 330.589844 139.828125 L 330.589844 214.304688 C 330.589844 221.113281 327.886719 227.644531 323.070312 232.460938 C 318.253906 237.277344 311.722656 239.984375 304.910156 239.984375 C 298.101562 239.984375 291.570312 237.277344 286.753906 232.460938 C 281.9375 227.644531 279.230469 221.113281 279.230469 214.304688 L 279.230469 139.828125 C 279.230469 133.015625 281.9375 126.484375 286.753906 121.671875 C 291.570312 116.855469 298.101562 114.148438 304.910156 114.148438 Z M 304.910156 114.148438 " clip-rule="nonzero"/></clipPath><clipPath id="041a7493e5"><path d="M 479.429688 114.148438 L 530.789062 114.148438 L 530.789062 240 L 479.429688 240 Z M 479.429688 114.148438 " clip-rule="nonzero"/></clipPath><clipPath id="880cd343b3"><path d="M 505.109375 114.148438 C 511.917969 114.148438 518.453125 116.855469 523.265625 121.671875 C 528.082031 126.484375 530.789062 133.015625 530.789062 139.828125 L 530.789062 214.304688 C 530.789062 221.113281 528.082031 227.644531 523.265625 232.460938 C 518.453125 237.277344 511.917969 239.984375 505.109375 239.984375 C 498.296875 239.984375 491.765625 237.277344 486.949219 232.460938 C 482.136719 227.644531 479.429688 221.113281 479.429688 214.304688 L 479.429688 139.828125 C 479.429688 133.015625 482.136719 126.484375 486.949219 121.671875 C 491.765625 116.855469 498.296875 114.148438 505.109375 114.148438 Z M 505.109375 114.148438 " clip-rule="nonzero"/></clipPath><clipPath id="5818fe6787"><path d="M 320 398 L 431 398 L 431 501 L 320 501 Z M 320 398 " clip-rule="nonzero"/></clipPath><clipPath id="79ffb9b9e3"><path d="M 310.222656 427.191406 L 343.566406 388.128906 L 441.375 471.621094 L 408.03125 510.683594 Z M 310.222656 427.191406 " clip-rule="nonzero"/></clipPath><clipPath id="bd8f14633b"><path d="M 326.894531 407.660156 C 331.316406 402.480469 337.613281 399.269531 344.40625 398.734375 C 351.195312 398.195312 357.917969 400.378906 363.097656 404.800781 L 421.820312 454.925781 C 427 459.347656 430.210938 465.648438 430.746094 472.4375 C 431.285156 479.226562 429.101562 485.949219 424.679688 491.128906 C 420.257812 496.3125 413.960938 499.523438 407.167969 500.058594 C 400.378906 500.59375 393.65625 498.410156 388.476562 493.988281 L 329.753906 443.863281 C 324.574219 439.441406 321.363281 433.144531 320.828125 426.355469 C 320.289062 419.566406 322.472656 412.839844 326.894531 407.660156 Z M 326.894531 407.660156 " clip-rule="nonzero"/></clipPath><clipPath id="cb41c3e70c"><path d="M 379 359 L 539 359 L 539 501 L 379 501 Z M 379 359 " clip-rule="nonzero"/></clipPath><clipPath id="db8a41cc74"><path d="M 516.101562 348.835938 L 548.984375 388.289062 L 402.113281 510.699219 L 369.230469 471.246094 Z M 516.101562 348.835938 " clip-rule="nonzero"/></clipPath><clipPath id="a8bd398ff3"><path d="M 532.542969 368.5625 C 536.902344 373.792969 539.007812 380.542969 538.390625 387.324219 C 537.773438 394.109375 534.488281 400.367188 529.257812 404.730469 L 421.875 494.226562 C 416.640625 498.589844 409.894531 500.691406 403.109375 500.074219 C 396.328125 499.460938 390.066406 496.175781 385.707031 490.941406 C 381.347656 485.710938 379.242188 478.960938 379.859375 472.179688 C 380.476562 465.394531 383.761719 459.136719 388.992188 454.773438 L 496.375 365.277344 C 501.605469 360.917969 508.355469 358.8125 515.136719 359.429688 C 521.921875 360.042969 528.179688 363.332031 532.542969 368.5625 Z M 532.542969 368.5625 " clip-rule="nonzero"/></clipPath><clipPath id="1659607f47"><path d="M 136.320312 266.347656 L 673.597656 266.347656 L 673.597656 302.152344 L 136.320312 302.152344 Z M 136.320312 266.347656 " clip-rule="nonzero"/></clipPath></defs><g clip-path="url(#93042a2802)"><rect x="-81" width="972" fill="#196ef7" y="-80.999999" height="971.999992" fill-opacity="1"/></g><g clip-path="url(#ffa399d964)"><g clip-path="url(#09395a0077)"><path fill="#ffffff" d="M 136.402344 161.148438 L 673.640625 161.148438 L 673.640625 648.851562 L 136.402344 648.851562 Z M 136.402344 161.148438 " fill-opacity="1" fill-rule="nonzero"/></g></g><g clip-path="url(#4928d68fd5)"><g clip-path="url(#2407e09b32)"><path stroke-linecap="butt" transform="matrix(0.75, 0, 0, 0.75, 136.403025, 161.149188)" fill="none" stroke-linejoin="miter" d="M 99.999104 -0.00100052 L 616.249163 -0.00100052 C 671.478336 -0.00100052 716.249174 44.769838 716.249174 99.999011 L 716.249174 550.264687 C 716.249174 605.49386 671.478336 650.264699 616.249163 650.264699 L 99.999104 650.264699 C 44.769931 650.264699 -0.00090785 605.49386 -0.00090785 550.264687 L -0.00090785 99.999011 C -0.00090785 44.769838 44.769931 -0.00100052 99.999104 -0.00100052 Z M 99.999104 -0.00100052 " stroke="#000000" stroke-width="96" stroke-opacity="1" stroke-miterlimit="4"/></g></g><g clip-path="url(#9b08239b30)"><g clip-path="url(#1cf6c8f049)"><path fill="#000000" d="M 379.320312 114.148438 L 430.679688 114.148438 L 430.679688 239.9375 L 379.320312 239.9375 Z M 379.320312 114.148438 " fill-opacity="1" fill-rule="nonzero"/></g></g><g clip-path="url(#fb9664fc1d)"><g clip-path="url(#e39998ce39)"><path fill="#000000" d="M 279.230469 114.148438 L 330.589844 114.148438 L 330.589844 239.9375 L 279.230469 239.9375 Z M 279.230469 114.148438 " fill-opacity="1" fill-rule="nonzero"/></g></g><g clip-path="url(#041a7493e5)"><g clip-path="url(#880cd343b3)"><path fill="#000000" d="M 479.429688 114.148438 L 530.789062 114.148438 L 530.789062 239.9375 L 479.429688 239.9375 Z M 479.429688 114.148438 " fill-opacity="1" fill-rule="nonzero"/></g></g><g clip-path="url(#5818fe6787)"><g clip-path="url(#79ffb9b9e3)"><g clip-path="url(#bd8f14633b)"><path fill="#545454" d="M 310.222656 427.191406 L 343.566406 388.128906 L 441.375 471.621094 L 408.03125 510.683594 Z M 310.222656 427.191406 " fill-opacity="1" fill-rule="nonzero"/></g></g></g><g clip-path="url(#cb41c3e70c)"><g clip-path="url(#db8a41cc74)"><g clip-path="url(#a8bd398ff3)"><path fill="#000000" d="M 516.101562 348.835938 L 548.984375 388.289062 L 402.113281 510.699219 L 369.230469 471.246094 Z M 516.101562 348.835938 " fill-opacity="1" fill-rule="nonzero"/></g></g></g><g clip-path="url(#1659607f47)"><path fill="#000000" d="M 136.320312 266.347656 L 673.550781 266.347656 L 673.550781 302.152344 L 136.320312 302.152344 Z M 136.320312 266.347656 " fill-opacity="1" fill-rule="nonzero"/></g></svg>